<svg width="24" height="20" viewBox="0 0 24 20" fill="none" xmlns="http://www.w3.org/2000/svg">
<path d="M-5.96046e-05 10.0081C0.00805722 10.8856 0.361608 11.7246 0.983983 12.3432L8.13914 19.515C8.45163 19.8256 8.87436 20 9.31499 20C9.75561 20 10.1783 19.8256 10.4908 19.515C10.6472 19.3599 10.7712 19.1755 10.8559 18.9722C10.9406 18.769 10.9842 18.551 10.9842 18.3308C10.9842 18.1106 10.9406 17.8926 10.8559 17.6894C10.7712 17.4861 10.6472 17.3017 10.4908 17.1466L5.00355 11.676L21.6822 11.676C22.1246 11.676 22.5488 11.5003 22.8616 11.1875C23.1744 10.8747 23.3501 10.4505 23.3501 10.0081C23.3501 9.5658 23.1744 9.14157 22.8616 8.82879C22.5488 8.516 22.1246 8.34028 21.6822 8.34028L5.00355 8.34028L10.4908 2.85299C10.8049 2.54114 10.9822 2.1173 10.9838 1.6747C10.9853 1.23211 10.811 0.807025 10.4992 0.492959C10.1873 0.178894 9.76347 0.00157305 9.32088 9.12095e-06C8.87829 -0.00155481 8.4532 0.172767 8.13914 0.484621L0.983983 7.65645C0.357552 8.27915 0.00366439 9.12488 -5.96046e-05 10.0081V10.0081Z" fill="#4A3F69"/>
</svg>
